<svg width="29" height="20" viewBox="0 0 29 20" fill="none" xmlns="http://www.w3.org/2000/svg">
<path d="M28.1468 4.23544C28.0044 3.21582 27.4811 2.2881 26.6822 1.63997L26.6145 1.56113C26.0407 1.08279 25.3471 0.770691 24.6094 0.658361C17.7198 -0.219454 10.7472 -0.219454 3.85767 0.658361C3.11155 0.766171 2.40972 1.07876 1.82982 1.56113L1.75086 1.62889V1.62864C0.949696 2.27953 0.425867 3.21151 0.286299 4.23545C-0.0954329 8.07022 -0.0954329 11.9335 0.286299 15.7683C0.423852 16.6658 0.842799 17.4963 1.4828 18.1396C2.12304 18.7827 2.95064 19.205 3.84637 19.3454C7.28799 19.7804 10.7533 19.999 14.2225 20C17.6913 19.999 21.1565 19.7804 24.5987 19.3454C25.4922 19.2028 26.3175 18.7794 26.9554 18.1366C27.5932 17.4935 28.0106 16.6643 28.1474 15.7683C28.5292 11.9335 28.5292 8.07022 28.1474 4.23538L28.1468 4.23544ZM14.2222 2.26063C17.2944 2.26541 20.3635 2.44627 23.4151 2.80244L16.6556 7.12432C15.9344 7.58175 15.0983 7.82455 14.2448 7.82455C13.391 7.82455 12.5549 7.58173 11.8337 7.12432L5.07418 2.80244C8.11094 2.44803 11.165 2.26717 14.222 2.26063H14.2222ZM25.9052 15.5429C25.827 15.9258 25.6396 16.2779 25.3655 16.5563C25.0917 16.8349 24.7429 17.0276 24.3616 17.1115C17.6665 17.9636 10.8909 17.9636 4.19578 17.1115C3.80424 17.0377 3.44335 16.849 3.15874 16.5699C2.87408 16.2908 2.67818 15.9334 2.59595 15.5429C2.2283 11.8583 2.2283 8.14604 2.59595 4.46145C2.61808 4.29143 2.67139 4.12669 2.75387 3.97632L10.64 9.02067V9.02042C11.7228 9.7091 12.9791 10.0746 14.2619 10.0746C15.5447 10.0746 16.8008 9.7091 17.8838 9.02042L25.7699 3.97606V3.97632C25.8524 4.12669 25.906 4.29118 25.9276 4.46145C26.2877 8.14682 26.2802 11.859 25.9052 15.5429H25.9052Z" fill="white"/>
</svg>
