<svg width="20" height="20" viewBox="0 0 20 20" fill="none" xmlns="http://www.w3.org/2000/svg">
<path d="M1.5253 10.7456C3.20388 14.0851 5.91511 16.795 9.25705 18.4729L10.7394 19.2136V19.2134C11.7432 19.7237 12.8522 19.9929 13.9783 19.9999C14.5655 20.0037 15.1504 19.9268 15.7168 19.7712C17.4221 19.3171 18.8311 18.1175 19.5505 16.5068L19.9164 15.7112C20.0063 15.5158 20.0243 15.295 19.9675 15.0876C19.9105 14.8802 19.7825 14.6995 19.6054 14.5773L14.8933 11.2853C14.7485 11.18 14.5759 11.1196 14.397 11.1114C14.2181 11.1035 14.0406 11.148 13.8868 11.2396L12.9719 11.7883C12.1919 12.1608 11.3012 12.2306 10.4728 11.9838C9.64425 11.7372 8.93722 11.1916 8.48852 10.4531C8.13642 9.94388 7.93216 9.34725 7.89828 8.72899C7.86438 8.11094 8.00204 7.49555 8.29634 6.95096L8.7722 6.10958C8.85635 5.95996 8.89658 5.78973 8.88862 5.61828C8.88045 5.44703 8.82428 5.28128 8.72646 5.14024L5.43257 0.394379C5.31023 0.217413 5.12928 0.0894338 4.92178 0.0324828C4.71428 -0.0242591 4.4935 -0.00629898 4.29803 0.0835115L3.5019 0.449285C1.89031 1.16819 0.689814 2.57636 0.235362 4.28071C-0.212523 5.95507 -0.0166618 7.73639 0.784344 9.27358L1.5253 10.7456ZM1.99198 4.76522C2.17436 4.07532 2.5338 3.44478 3.03499 2.93635C3.38811 2.58915 3.80006 2.30727 4.252 2.10437L4.35269 2.05865L6.87806 5.71639L6.68587 6.05481L6.68567 6.05461C6.22512 6.89495 6.00619 7.84633 6.05314 8.8034C6.09991 9.76026 6.41075 10.6857 6.95117 11.4773C7.65271 12.5936 8.74414 13.4098 10.0134 13.7679C11.2829 14.1261 12.6403 14.0006 13.8224 13.4158L14.3073 13.1415L17.9672 15.6654L17.9214 15.7752H17.9216C17.7188 16.2269 17.4368 16.6388 17.0889 16.9913C16.581 17.495 15.9501 17.8575 15.259 18.0429C14.0291 18.3619 12.7244 18.2119 11.5991 17.6222L10.0802 16.8541C7.09062 15.3532 4.66517 12.9288 3.16306 9.94098L2.42188 8.45949L2.42208 8.4597C1.81962 7.32585 1.666 6.00703 1.99196 4.76523L1.99198 4.76522Z" fill="white"/>
</svg>
