<svg width="20" height="20" viewBox="0 0 20 20" fill="none" xmlns="http://www.w3.org/2000/svg">
<path fill-rule="evenodd" clip-rule="evenodd" d="M10 15.7143C9.2115 15.7143 8.57143 15.0742 8.57143 14.2857V10C8.57143 9.2115 9.2115 8.57143 10 8.57143C10.7885 8.57143 11.4286 9.2115 11.4286 10V14.2857C11.4286 15.0742 10.7885 15.7143 10 15.7143ZM10.7143 7.14286H9.28572C8.89146 7.14286 8.57143 6.82283 8.57143 6.42857V5C8.57143 4.60575 8.89146 4.28571 9.28572 4.28571H10.7143C11.1085 4.28571 11.4286 4.60575 11.4286 5V6.42857C11.4286 6.82282 11.1085 7.14286 10.7143 7.14286ZM10 0C4.47714 0 0 4.47714 0 10C0 15.5229 4.47714 20 10 20C15.5229 20 20 15.5229 20 10C20 4.47714 15.5229 0 10 0Z" fill="white"/>
</svg>
